<?xml version="1.0" encoding="UTF-8"?><svg id="a" xmlns="http://www.w3.org/2000/svg" viewBox="0 0 68.05 62.26"><defs><style>.b{fill:#40531b;}</style></defs><path class="b" d="M48.45,18.63c-.56,0-1.11-.29-1.41-.82l-4.98-8.62c-2.21-3.82-5.06-5.93-8.03-5.93-2.97,0-5.82,2.11-8.03,5.93l-4.98,8.62c-.45,.78-1.45,1.05-2.23,.6-.78-.45-1.05-1.45-.6-2.23l4.98-8.62C25.99,2.69,29.84,0,34.03,0h0c4.19,0,8.04,2.69,10.86,7.56l4.98,8.62c.45,.78,.18,1.78-.6,2.23-.26,.15-.54,.22-.81,.22Z"/><path class="b" d="M34.03,18.63c-3.64,0-6.6-2.96-6.6-6.6s2.96-6.6,6.6-6.6,6.6,2.96,6.6,6.6-2.96,6.6-6.6,6.6Zm0-9.94c-1.84,0-3.34,1.5-3.34,3.34s1.5,3.34,3.34,3.34,3.34-1.5,3.34-3.34-1.5-3.34-3.34-3.34Z"/><path class="b" d="M13.3,62.26c-5.63,0-9.89-2-11.98-5.62-2.09-3.62-1.69-8.31,1.12-13.18l4.98-8.62c.45-.78,1.45-1.05,2.23-.6,.78,.45,1.05,1.45,.6,2.23l-4.98,8.62c-2.21,3.82-2.61,7.35-1.12,9.92,1.49,2.57,4.74,3.99,9.15,3.99h9.95c.9,0,1.63,.73,1.63,1.63s-.73,1.63-1.63,1.63H13.3Z"/><path class="b" d="M11.75,57.23c-.57,0-1.15-.08-1.72-.23-1.7-.46-3.13-1.55-4.01-3.08-1.82-3.15-.74-7.2,2.42-9.02,3.15-1.82,7.2-.74,9.02,2.42,.88,1.53,1.12,3.31,.66,5.01s-1.55,3.13-3.08,4.01c-1.02,.59-2.15,.89-3.29,.89Zm-.02-9.94c-.57,0-1.14,.14-1.66,.45-1.59,.92-2.14,2.96-1.22,4.56,.45,.77,1.17,1.32,2.03,1.55,.86,.23,1.76,.11,2.53-.33h0c1.59-.92,2.14-2.96,1.22-4.56-.62-1.07-1.74-1.67-2.9-1.67Z"/><path class="b" d="M54.75,62.26h-9.95c-.9,0-1.63-.73-1.63-1.63s.73-1.63,1.63-1.63h9.95c4.42,0,7.67-1.42,9.15-3.99,1.49-2.57,1.09-6.1-1.12-9.92l-4.98-8.62c-.45-.78-.18-1.78,.6-2.23,.78-.45,1.78-.18,2.23,.6l4.98,8.62c2.82,4.88,3.21,9.56,1.12,13.18-2.09,3.62-6.35,5.62-11.98,5.62Z"/><path class="b" d="M56.3,57.22c-1.12,0-2.25-.28-3.29-.88-1.53-.88-2.62-2.3-3.08-4.01-.46-1.7-.22-3.48,.66-5.01s2.3-2.62,4.01-3.08c1.7-.46,3.48-.22,5.01,.66h0c3.15,1.82,4.24,5.86,2.42,9.02-1.22,2.11-3.44,3.3-5.73,3.3Zm.02-9.94c-.29,0-.58,.04-.87,.12-.86,.23-1.58,.78-2.03,1.55-.92,1.59-.37,3.64,1.22,4.56,1.59,.92,3.64,.37,4.56-1.22,.92-1.59,.37-3.64-1.22-4.56h0c-.51-.3-1.08-.45-1.66-.45Z"/><path class="b" d="M34.03,50.31c-6.92,0-12.55-5.63-12.55-12.55s5.63-12.55,12.55-12.55,12.55,5.63,12.55,12.55-5.63,12.55-12.55,12.55Zm0-21.83c-5.12,0-9.28,4.16-9.28,9.28s4.16,9.28,9.28,9.28,9.28-4.16,9.28-9.28-4.16-9.28-9.28-9.28Z"/></svg>